<svg width="16" height="16" viewBox="0 0 16 16" fill="none" xmlns="http://www.w3.org/2000/svg">
<g id="OverflowMenuSecond">
<g id="Union">
<path d="M7.33334 4.62963C7.33334 5.16146 6.88562 5.5926 6.33334 5.5926C5.78105 5.5926 5.33334 5.16146 5.33334 4.62963C5.33334 4.0978 5.78105 3.66667 6.33334 3.66667C6.88562 3.66667 7.33334 4.0978 7.33334 4.62963Z" fill="#B3B3B3"/>
<path d="M7.33334 11.3704C7.33334 11.9022 6.88562 12.3333 6.33334 12.3333C5.78105 12.3333 5.33334 11.9022 5.33334 11.3704C5.33334 10.8385 5.78105 10.4074 6.33334 10.4074C6.88562 10.4074 7.33334 10.8385 7.33334 11.3704Z" fill="#B3B3B3"/>
<path d="M7.33334 8C7.33334 8.53183 6.88562 8.96297 6.33334 8.96297C5.78105 8.96297 5.33334 8.53183 5.33334 8C5.33334 7.46817 5.78105 7.03704 6.33334 7.03704C6.88562 7.03704 7.33334 7.46817 7.33334 8Z" fill="#B3B3B3"/>
<path d="M10.6667 4.62963C10.6667 5.16146 10.219 5.5926 9.66667 5.5926C9.11438 5.5926 8.66667 5.16146 8.66667 4.62963C8.66667 4.0978 9.11438 3.66667 9.66667 3.66667C10.219 3.66667 10.6667 4.0978 10.6667 4.62963Z" fill="#B3B3B3"/>
<path d="M10.6667 11.3704C10.6667 11.9022 10.219 12.3333 9.66667 12.3333C9.11438 12.3333 8.66667 11.9022 8.66667 11.3704C8.66667 10.8385 9.11438 10.4074 9.66667 10.4074C10.219 10.4074 10.6667 10.8385 10.6667 11.3704Z" fill="#B3B3B3"/>
<path d="M10.6667 8C10.6667 8.53183 10.219 8.96297 9.66667 8.96297C9.11438 8.96297 8.66667 8.53183 8.66667 8C8.66667 7.46817 9.11438 7.03704 9.66667 7.03704C10.219 7.03704 10.6667 7.46817 10.6667 8Z" fill="#B3B3B3"/>
</g>
</g>
</svg>
